<svg xmlns="http://www.w3.org/2000/svg" version="1.1" xmlns:xlink="http://www.w3.org/1999/xlink" xmlns:svgjs="http://svgjs.dev/svgjs" width="2000" height="1500" viewBox="0 0 2000 1500"><rect width="2000" height="1500" fill="#0a1627"></rect><g transform="matrix(0.4444444444444444,0,0,0.4444444444444444,555.5555555555557,250)"><svg viewBox="0 0 320 360" data-background-color="#0a1627" preserveAspectRatio="xMidYMid meet" height="2250" width="2000" xmlns="http://www.w3.org/2000/svg" xmlns:xlink="http://www.w3.org/1999/xlink"><g id="tight-bounds" transform="matrix(1,0,0,1,0,0)"><svg viewBox="0 0 320 360" height="360" width="320"><g><svg></svg></g><g><svg viewBox="0 0 320 360" height="360" width="320"><g><path xmlns="http://www.w3.org/2000/svg" d="M297.491 100.645c-12.426-21.51-112.674-79.355-137.491-79.355-24.817 0-125.028 57.845-137.491 79.355-11.591 20.02-11.591 138.726 0 158.746 12.463 21.474 112.674 79.319 137.491 79.319 24.817 0 125.064-57.845 137.491-79.355 11.591-20.02 11.591-138.69 0-158.71zM309.481 93.705c-14.461-24.998-119.469-86.295-149.481-86.295-30.012 0-135.02 61.297-149.481 86.295-14.025 24.199-14.025 148.391 0 172.59 14.461 24.998 119.469 86.295 149.481 86.295 30.012 0 135.02-61.297 149.481-86.259 14.025-24.235 14.025-148.427 0-172.626zM300.906 261.353c-12.753 22.055-115.472 81.317-140.906 81.318-25.434 0-128.153-59.298-140.906-81.354-11.881-20.529-11.881-142.178 0-162.707 12.753-22.019 115.472-81.281 140.906-81.281 25.434 0 128.153 59.298 140.906 81.318 11.881 20.529 11.881 142.178 0 162.706z" fill="#fe0039" fill-rule="nonzero" stroke="none" stroke-width="1" stroke-linecap="butt" stroke-linejoin="miter" stroke-miterlimit="10" stroke-dasharray="" stroke-dashoffset="0" font-family="none" font-weight="none" font-size="none" text-anchor="none" style="mix-blend-mode: normal" data-fill-palette-color="tertiary"></path></g><g transform="matrix(1,0,0,1,87.36606868131867,90)"><svg viewBox="0 0 145.26786263736267 180" height="180" width="145.26786263736267"><g><svg viewBox="0 0 145.26786263736267 180" height="180" width="145.26786263736267"><g><svg viewBox="0 0 145.26786263736267 180" height="180" width="145.26786263736267"><g id="textblocktransform"><svg viewBox="0 0 145.26786263736267 180" height="180" width="145.26786263736267" id="textblock"><g><svg viewBox="0 0 145.26786263736267 180" height="180" width="145.26786263736267"><path d="M144.928 38.607C144.245 19.923 142.298 14.728 142.298 14.728 136.323-4.516 128.865-0.368 122.166 2.397 110.337 2.509 98.556 6.62 86.755 8.824 61.985 9.161 37.003 3.63 12.356 17.27 10.041 21.455-2.402 18.092 0.412 40.998 1.149 50.527 3.84 61.102 3.758 69.846 4.127 71.378 4.639 67.866 4.858 70.07 5.623 76.012 6.872 73.209 7.897 76.722 6.469 86.101 7.494 93.911 8.47 102.095 6.749 104.225 4.544 103.216 3.553 110.278 3.451 115.398 2.898 114.426 2.29 114.202 1.846 114.052 0.951 114.613 1.102 116.22 1.614 121.713-0.585 124.889 0.794 130.27-0.155 136.099 1.45 141.144 1.231 147.459 1.204 148.73 1.354 149.813 1.593 150.112 2.652 151.719 1.108 154.858 1.272 158.258 12.131 181.501 23.912 165.433 35.037 176.12 37.925 168.647 35.754 178.773 36.908 177.204 37.809 175.373 38.465 182.959 39.483 178.661 39.64 177.428 39.401 174.514 39.961 175.074 40.254 175.373 40.514 175.298 40.555 173.579 40.616 171.001 40.077 172.608 39.933 171.263 41.484 164.462 41.101 180.642 42.556 179.969 42.487 177.989 42.064 175.149 42.931 175.522 43.792 172.682 43.819 170.328 44.584 176.718 44.611 178.101 44.748 179.072 44.967 179.745 47.357 172.795 49.733 182.211 52.24 179.072 53.776 175.635 55.252 180.941 56.809 179.633 57.355 178.587 57.908 176.718 58.434 179.857 64.874 180.53 71.738 177.727 77.843 179.969 94.158 175.784 111.594 181.688 128.797 176.158 132.853 174.028 137.067 171.001 141.021 168.572 141.021 168.572 144.224 161.921 144.224 132.026S144.907 105.869 145.01 82.065C145.112 58.262 145.59 57.29 144.907 38.607Z" opacity="1" fill="#fe0039" data-fill-palette-color="tertiary"></path><g transform="matrix(1,0,0,1,31.58400000000001,19.1)"><svg width="82.09986263736265" viewBox="3.8299999237060547 -35.54999923706055 20.579999923706055 35.54999923706055" height="141.8" data-palette-color="#132a4d"><path d="M14.31 0L3.83 0 3.83-35.55 13.96-35.55Q18.82-35.55 21.28-33.18 23.73-30.81 23.73-26.07L23.73-26.07Q23.73-23.58 22.49-21.68 21.24-19.78 19.12-18.73L19.12-18.73Q21.56-17.99 22.99-15.72 24.41-13.45 24.41-10.25L24.41-10.25Q24.41-5.47 21.79-2.73 19.17 0 14.31 0L14.31 0ZM14.5-16.63L8.3-16.63 8.3-3.83 14.4-3.83Q16.94-3.83 18.43-5.51 19.92-7.18 19.92-10.21L19.92-10.21Q19.92-16.63 14.5-16.63L14.5-16.63ZM8.3-31.69L8.3-20.39 14.04-20.39Q16.36-20.39 17.79-21.95 19.21-23.51 19.21-26.1L19.21-26.1Q19.21-29.03 17.92-30.36 16.63-31.69 13.96-31.69L13.96-31.69 8.3-31.69Z" opacity="1" transform="matrix(1,0,0,1,0,0)" fill="#132a4d" class="undefined-text-0" data-fill-palette-color="quaternary" id="text-0"></path></svg></g></svg></g></svg></g></svg></g><g></g></svg></g></svg></g></svg></g><defs></defs></svg><rect width="320" height="360" fill="none" stroke="none" visibility="hidden"></rect></g></svg></g></svg>